<mxfile host="app.diagrams.net" modified="2021-07-29T12:16:04.614Z" agent="5.0 (Windows NT 10.0; Win64; x64) AppleWebKit/537.36 (KHTML, like Gecko) Chrome/92.0.4515.107 Safari/537.36" etag="9Fvx7EzFyPyrTSSWq8vl" version="14.9.0" type="github">
  <diagram id="eC4nDoxioBcgY8u1fJzs" name="Page-1">
    <mxGraphModel dx="1422" dy="794" grid="1" gridSize="10" guides="1" tooltips="1" connect="1" arrows="1" fold="1" page="1" pageScale="1" pageWidth="827" pageHeight="1169" math="0" shadow="0">
      <root>
        <mxCell id="0" />
        <mxCell id="1" parent="0" />
        <mxCell id="SvwNnWSBO38b0kkTtaii-1" value="10.96.3.181&lt;br&gt;db:0" style="strokeWidth=2;html=1;shape=mxgraph.flowchart.direct_data;whiteSpace=wrap;" vertex="1" parent="1">
          <mxGeometry x="550" y="120" width="100" height="60" as="geometry" />
        </mxCell>
        <mxCell id="SvwNnWSBO38b0kkTtaii-2" value="10.96.1.150&lt;br&gt;db:0" style="strokeWidth=2;html=1;shape=mxgraph.flowchart.direct_data;whiteSpace=wrap;" vertex="1" parent="1">
          <mxGeometry x="550" y="500" width="100" height="60" as="geometry" />
        </mxCell>
        <mxCell id="SvwNnWSBO38b0kkTtaii-7" style="edgeStyle=orthogonalEdgeStyle;rounded=0;orthogonalLoop=1;jettySize=auto;html=1;entryX=0;entryY=0.5;entryDx=0;entryDy=0;entryPerimeter=0;" edge="1" parent="1" source="SvwNnWSBO38b0kkTtaii-4" target="SvwNnWSBO38b0kkTtaii-1">
          <mxGeometry relative="1" as="geometry" />
        </mxCell>
        <mxCell id="SvwNnWSBO38b0kkTtaii-4" value="service-season" style="rounded=0;whiteSpace=wrap;html=1;" vertex="1" parent="1">
          <mxGeometry x="100" y="120" width="120" height="60" as="geometry" />
        </mxCell>
        <mxCell id="SvwNnWSBO38b0kkTtaii-8" value="10.96.3.158&lt;br&gt;db:1" style="strokeWidth=2;html=1;shape=mxgraph.flowchart.direct_data;whiteSpace=wrap;" vertex="1" parent="1">
          <mxGeometry x="550" y="230" width="100" height="60" as="geometry" />
        </mxCell>
        <mxCell id="SvwNnWSBO38b0kkTtaii-11" style="edgeStyle=orthogonalEdgeStyle;rounded=0;orthogonalLoop=1;jettySize=auto;html=1;" edge="1" parent="1" source="SvwNnWSBO38b0kkTtaii-9" target="SvwNnWSBO38b0kkTtaii-2">
          <mxGeometry relative="1" as="geometry" />
        </mxCell>
        <mxCell id="SvwNnWSBO38b0kkTtaii-9" value="service-video" style="rounded=0;whiteSpace=wrap;html=1;" vertex="1" parent="1">
          <mxGeometry x="100" y="500" width="120" height="60" as="geometry" />
        </mxCell>
        <mxCell id="SvwNnWSBO38b0kkTtaii-12" style="edgeStyle=orthogonalEdgeStyle;rounded=0;orthogonalLoop=1;jettySize=auto;html=1;entryX=0;entryY=0.5;entryDx=0;entryDy=0;entryPerimeter=0;" edge="1" parent="1" source="SvwNnWSBO38b0kkTtaii-10" target="SvwNnWSBO38b0kkTtaii-8">
          <mxGeometry relative="1" as="geometry" />
        </mxCell>
        <mxCell id="SvwNnWSBO38b0kkTtaii-10" value="service-cms-movie" style="rounded=0;whiteSpace=wrap;html=1;" vertex="1" parent="1">
          <mxGeometry x="100" y="230" width="120" height="60" as="geometry" />
        </mxCell>
        <mxCell id="SvwNnWSBO38b0kkTtaii-13" value="10.96.2.43&lt;br&gt;db:1" style="strokeWidth=2;html=1;shape=mxgraph.flowchart.direct_data;whiteSpace=wrap;" vertex="1" parent="1">
          <mxGeometry x="550" y="360" width="100" height="60" as="geometry" />
        </mxCell>
        <mxCell id="SvwNnWSBO38b0kkTtaii-15" style="edgeStyle=orthogonalEdgeStyle;rounded=0;orthogonalLoop=1;jettySize=auto;html=1;" edge="1" parent="1" source="SvwNnWSBO38b0kkTtaii-14" target="SvwNnWSBO38b0kkTtaii-13">
          <mxGeometry relative="1" as="geometry" />
        </mxCell>
        <mxCell id="SvwNnWSBO38b0kkTtaii-14" value="service-cms-album" style="rounded=0;whiteSpace=wrap;html=1;" vertex="1" parent="1">
          <mxGeometry x="100" y="360" width="120" height="60" as="geometry" />
        </mxCell>
        <mxCell id="SvwNnWSBO38b0kkTtaii-20" value="10.96.3.8&lt;br&gt;db:0" style="strokeWidth=2;html=1;shape=mxgraph.flowchart.direct_data;whiteSpace=wrap;" vertex="1" parent="1">
          <mxGeometry x="550" y="640" width="100" height="60" as="geometry" />
        </mxCell>
        <mxCell id="SvwNnWSBO38b0kkTtaii-21" style="edgeStyle=orthogonalEdgeStyle;rounded=0;orthogonalLoop=1;jettySize=auto;html=1;" edge="1" parent="1" source="SvwNnWSBO38b0kkTtaii-22" target="SvwNnWSBO38b0kkTtaii-20">
          <mxGeometry relative="1" as="geometry" />
        </mxCell>
        <mxCell id="SvwNnWSBO38b0kkTtaii-22" value="service-content-article" style="rounded=0;whiteSpace=wrap;html=1;" vertex="1" parent="1">
          <mxGeometry x="100" y="640" width="120" height="60" as="geometry" />
        </mxCell>
      </root>
    </mxGraphModel>
  </diagram>
</mxfile>
